<svg
   height="24px"
   width="24px"
   viewBox="0 0 250 250"
   version="1.1"
   id="svg4"
   sodipodi:docname="youtube.svg"
   inkscape:version="1.2.2 (b0a8486541, 2022-12-01)"
   xmlns:inkscape="http://www.inkscape.org/namespaces/inkscape"
   xmlns:sodipodi="http://sodipodi.sourceforge.net/DTD/sodipodi-0.dtd"
   xmlns="http://www.w3.org/2000/svg"
   xmlns:svg="http://www.w3.org/2000/svg">
  <defs
     id="defs8" />
  <sodipodi:namedview
     id="namedview6"
     pagecolor="#ffffff"
     bordercolor="#000000"
     borderopacity="0.25"
     inkscape:showpageshadow="2"
     inkscape:pageopacity="0.0"
     inkscape:pagecheckerboard="0"
     inkscape:deskcolor="#d1d1d1"
     showgrid="false"
     inkscape:zoom="42.791667"
     inkscape:cx="9.9902629"
     inkscape:cy="11.988315"
     inkscape:window-width="2560"
     inkscape:window-height="1389"
     inkscape:window-x="0"
     inkscape:window-y="27"
     inkscape:window-maximized="1"
     inkscape:current-layer="svg4" />
  <path
     d="m 100.9995,134.8925 v -69.784 l 61.334,34.893 z m 136.43,-91.742 c -2.699,-10.162 -10.651,-18.165 -20.747,-20.881 -18.3,-4.936 -91.683,-4.936 -91.683,-4.936 0,0 -73.382,0 -91.682,4.936 -10.096,2.716 -18.048,10.719 -20.747,20.881 -4.904,18.419 -4.904,56.85 -4.904,56.85 0,0 0,38.429 4.904,56.849 2.699,10.163 10.65,18.165 20.747,20.883 18.3,4.934 91.682,4.934 91.682,4.934 0,0 73.383,0 91.683,-4.934 10.096,-2.718 18.048,-10.72 20.747,-20.883 4.904,-18.42 4.904,-56.85 4.904,-56.85 0,0 0,-38.43 -4.904,-56.849"
     fill="#ffffff"
     id="path2" />
</svg>
